<?xml version="1.0" standalone="no"?>
<!DOCTYPE svg PUBLIC "-//W3C//DTD SVG 20010904//EN"
 "http://www.w3.org/TR/2001/REC-SVG-20010904/DTD/svg10.dtd">
<svg version="1.0" xmlns="http://www.w3.org/2000/svg"
 width="582.000000pt" height="581.000000pt" viewBox="0 0 582.000000 581.000000"
 preserveAspectRatio="xMidYMid meet">

<g transform="translate(0.000000,581.000000) scale(0.100000,-0.100000)"
fill="#000000" stroke="none">
<path d="M0 5708 l0 -103 487 -487 487 -487 -24 -28 c-14 -15 36 33 110 107
74 74 173 166 220 203 136 109 343 243 484 312 127 61 355 151 445 175 l44 12
-199 199 -199 199 -927 0 -928 0 0 -102z"/>
<path d="M1869 5230 c-204 -89 -326 -161 -537 -322 -175 -132 -318 -273 -434
-428 l-34 -45 31 -27 31 -27 73 89 c86 105 298 315 391 386 175 136 421 277
610 349 41 16 77 30 79 32 9 6 -43 53 -58 52 -9 0 -77 -27 -152 -59z"/>
<path d="M2333 5267 c-53 -15 -55 -18 -43 -54 11 -30 11 -30 56 -20 27 7 48 7
53 1 9 -9 56 -206 67 -281 6 -37 10 -43 30 -43 13 0 24 5 24 12 0 7 -12 80
-27 163 -26 148 -27 151 -67 193 -22 23 -43 42 -46 41 -3 -1 -24 -6 -47 -12z"/>
<path d="M2197 5233 c-15 -4 -17 -11 -12 -31 9 -37 20 -46 49 -38 29 7 31 13
16 50 -9 26 -17 28 -53 19z"/>
<path d="M2025 5171 c-145 -58 -171 -70 -300 -140 -182 -99 -354 -224 -501
-363 -75 -71 -227 -240 -166 -183 l33 29 105 -106 106 -105 -17 -26 c-9 -15
-15 -32 -12 -39 4 -9 6 -7 6 4 2 42 194 238 346 353 141 105 387 242 540 299
28 10 53 22 58 25 4 4 -2 34 -14 67 -11 32 -30 98 -42 146 l-22 86 -120 -47z"/>
<path d="M2254 5005 c21 -57 29 -106 21 -114 -6 -4 -46 -21 -89 -36 -43 -16
-140 -59 -215 -95 -201 -99 -358 -211 -524 -375 l-79 -77 36 -37 c20 -20 36
-41 36 -45 0 -5 -12 -23 -27 -41 -41 -48 -148 -195 -168 -230 -15 -26 -15 -28
0 -10 9 11 20 27 25 35 7 12 31 -7 116 -91 l106 -106 -17 -32 c-9 -18 -14 -35
-11 -39 3 -3 6 -1 6 5 0 6 23 45 51 88 l50 77 -22 16 c-32 22 -59 50 -59 61 0
37 234 275 358 364 214 153 404 244 631 300 69 18 128 33 130 35 3 1 -30 38
-73 81 l-78 78 -40 -10 c-50 -13 -59 -3 -82 84 -13 51 -26 75 -53 100 -27 25
-34 29 -29 14z"/>
<path d="M2391 4921 c-20 -13 -5 -71 19 -71 25 0 31 11 22 45 -9 32 -20 39
-41 26z"/>
<path d="M2740 4910 c0 -5 5 -10 11 -10 5 0 7 5 4 10 -3 6 -8 10 -11 10 -2 0
-4 -4 -4 -10z"/>
<path d="M2520 4589 c-314 -69 -570 -208 -817 -442 -99 -94 -119 -123 -102
-144 19 -22 20 -66 1 -80 -14 -12 -14 -13 1 -13 9 0 20 -1 25 -1 4 -1 12 8 18
19 9 19 66 -35 647 -609 l636 -630 41 11 c56 15 112 69 144 137 l27 56 50 -6
49 -6 0 54 0 54 38 10 c100 25 100 25 110 -11 7 -30 12 -33 52 -36 57 -4 68
-14 72 -65 3 -41 4 -42 46 -48 48 -6 62 -20 62 -60 0 -38 -19 -51 -61 -39 -18
6 -39 10 -46 10 -6 0 -32 -43 -56 -94 -50 -104 -114 -181 -184 -223 -35 -20
-46 -23 -58 -13 -8 7 -15 18 -15 24 0 6 7 2 15 -8 8 -11 15 -16 15 -10 0 5 -7
18 -15 28 -11 14 -15 16 -15 5 0 -9 -8 -5 -20 11 -26 33 -25 19 1 -33 20 -38
20 -41 3 -27 -18 14 -18 14 -4 -4 13 -16 12 -20 -5 -32 -10 -8 -14 -14 -8 -14
5 0 18 9 28 20 19 21 22 18 426 -386 l407 -407 28 21 c16 11 49 41 74 66 l44
46 -32 33 c-35 36 -40 58 -16 78 8 7 22 26 31 42 15 29 14 31 -21 63 -40 37
-40 37 -25 66 10 18 6 25 -31 57 -39 34 -42 39 -31 60 7 12 10 25 7 29 -4 3
-61 41 -128 84 l-123 78 -25 -30 c-14 -17 -30 -30 -36 -30 -6 0 -29 14 -50 31
-36 28 -39 29 -47 12 -5 -10 -25 -28 -44 -41 l-36 -23 -44 43 c-23 23 -43 47
-43 53 1 5 14 28 30 50 45 60 120 173 120 179 0 6 -67 36 -79 36 -4 0 -15 -16
-25 -36 -23 -49 -34 -34 -11 16 20 45 27 47 79 25 20 -9 41 -13 46 -10 14 8
48 127 60 210 14 89 22 98 82 93 l49 -3 -7 67 c-8 81 -1 93 61 103 44 6 53 17
37 42 -5 9 -19 9 -51 2 -36 -8 -47 -7 -61 6 -15 14 -25 15 -60 5 -35 -10 -45
-9 -58 3 -13 13 -19 13 -57 0 -33 -11 -49 -12 -64 -3 -16 8 -29 7 -57 -5 -40
-17 -69 -13 -78 11 -5 12 -14 10 -55 -11 l-50 -25 -18 25 -18 25 -37 -25 c-47
-32 -62 -31 -87 1 -35 45 -36 62 -2 105 l31 38 -25 17 c-30 20 -32 42 -4 88
19 33 19 37 5 52 -21 20 -20 33 3 87 26 61 47 64 119 17 l58 -37 36 39 c33 36
38 39 60 28 12 -7 32 -21 44 -31 20 -19 21 -19 43 5 l23 25 -31 38 c-17 21
-31 42 -31 48 0 6 13 26 29 45 26 31 27 37 15 56 -13 19 -11 26 19 70 19 27
43 50 54 52 14 2 42 -17 87 -59 l66 -61 44 40 43 40 -221 221 -221 221 -29
-70 c-25 -62 -31 -70 -55 -70 -49 0 -57 13 -43 66 15 56 14 57 -72 74 -94 18
-88 13 -84 78 l3 57 -80 8 c-110 12 -105 9 -105 72 l0 55 -67 -1 c-38 0 -98
-3 -134 -7 -37 -4 -72 -6 -78 -4 -6 2 -11 18 -12 35 -1 18 -4 41 -7 53 l-7 21
-125 -28z"/>
<path d="M904 4548 l-19 -23 23 19 c21 18 27 26 19 26 -2 0 -12 -10 -23 -22z"/>
<path d="M2700 4560 c0 -5 5 -10 11 -10 5 0 7 5 4 10 -3 6 -8 10 -11 10 -2 0
-4 -4 -4 -10z"/>
<path d="M1004 4428 l-19 -23 23 19 c21 18 27 26 19 26 -2 0 -12 -10 -23 -22z"/>
<path d="M839 4403 c-13 -16 -12 -17 4 -4 9 7 17 15 17 17 0 8 -8 3 -21 -13z"/>
<path d="M899 4353 c-13 -16 -12 -17 4 -4 9 7 17 15 17 17 0 8 -8 3 -21 -13z"/>
<path d="M1327 4272 c-24 -26 -21 -38 13 -62 25 -18 34 -19 45 -10 22 18 19
33 -13 63 -28 27 -29 27 -45 9z"/>
<path d="M1280 4216 c0 -2 8 -10 18 -17 15 -13 16 -12 3 4 -13 16 -21 21 -21
13z"/>
<path d="M3322 4174 c-14 -45 6 -42 25 4 11 27 11 32 0 32 -8 0 -19 -16 -25
-36z"/>
<path d="M1320 4186 c0 -2 8 -10 18 -17 15 -13 16 -12 3 4 -13 16 -21 21 -21
13z"/>
<path d="M1552 3987 c-12 -13 -22 -27 -22 -31 0 -5 8 2 18 14 16 20 19 21 31
6 24 -29 38 -12 18 22 -11 17 -21 15 -45 -11z"/>
<path d="M1550 3946 c0 -2 8 -10 18 -17 15 -13 16 -12 3 4 -13 16 -21 21 -21
13z"/>
<path d="M1244 3858 c11 -7 28 -21 39 -32 12 -11 18 -13 15 -5 -3 8 -20 22
-39 32 -19 10 -25 12 -15 5z"/>
<path d="M3965 3680 c3 -5 8 -10 11 -10 2 0 4 5 4 10 0 6 -5 10 -11 10 -5 0
-7 -4 -4 -10z"/>
<path d="M1475 3661 c-3 -5 -2 -12 3 -15 5 -3 9 1 9 9 0 17 -3 19 -12 6z"/>
<path d="M3997 3653 c-3 -5 10 -34 30 -66 32 -52 36 -56 56 -46 12 7 23 12 24
13 1 1 -22 26 -51 55 -30 29 -56 49 -59 44z"/>
<path d="M3592 3621 c-21 -29 -21 -29 -1 -46 10 -10 19 -25 19 -34 0 -17 -79
-101 -95 -101 -5 0 -24 15 -43 33 l-33 32 -31 -37 c-16 -21 -38 -38 -49 -38
-10 0 -41 16 -68 36 l-50 35 -16 -31 c-16 -31 -16 -33 4 -54 27 -29 26 -42 -4
-81 l-24 -32 24 -23 c42 -40 42 -59 -1 -96 -27 -23 -36 -36 -29 -43 8 -8 22
-3 47 14 45 30 69 32 86 5 l12 -20 41 20 c38 20 42 20 65 5 13 -8 24 -19 24
-24 0 -5 20 -1 45 8 34 12 49 13 62 5 13 -8 29 -7 61 4 36 12 48 12 67 2 24
-13 66 -7 175 25 55 17 65 10 80 -58 20 -87 14 -100 -48 -110 l-53 -9 7 -72
c4 -50 3 -75 -5 -80 -6 -4 -11 -16 -11 -27 0 -17 -5 -19 -55 -13 -54 7 -55 6
-55 -18 0 -89 -84 -295 -161 -397 l-41 -54 27 -26 26 -26 39 43 c21 23 41 42
46 42 4 0 25 -12 46 -26 36 -25 39 -26 57 -10 17 15 26 11 162 -75 163 -103
173 -112 157 -142 -9 -18 -5 -25 33 -58 42 -35 43 -37 27 -60 -15 -23 -15 -25
29 -64 l45 -40 -21 -26 -20 -26 40 -36 c51 -46 49 -50 -78 -175 l-94 -93 30
-35 c17 -19 31 -39 31 -43 0 -17 -95 -93 -152 -122 -31 -16 -59 -29 -61 -29
-3 0 -16 18 -31 40 -19 30 -30 38 -43 33 -17 -7 -17 -8 -1 -11 9 -2 27 -19 39
-39 19 -31 25 -34 53 -29 29 6 38 0 100 -63 63 -64 67 -69 49 -82 -45 -34 -47
-46 -19 -90 15 -22 30 -38 33 -35 3 3 -5 23 -19 43 l-25 38 33 16 c33 16 34
16 50 -10 10 -14 17 -31 17 -38 0 -14 44 16 159 110 l76 62 -35 36 c-40 42
-39 65 5 99 15 12 66 65 114 117 l87 97 -42 36 c-47 43 -47 47 18 132 l36 47
-40 23 c-23 13 -43 29 -46 36 -3 8 11 42 30 76 19 35 35 65 35 68 0 3 -18 13
-39 23 -46 20 -54 35 -40 71 5 15 8 28 7 29 -2 1 -19 10 -38 20 -59 29 -61 33
-44 66 l15 29 -46 20 c-43 18 -46 22 -43 51 3 29 0 33 -36 45 -54 19 -67 32
-60 59 5 21 0 25 -43 37 -44 13 -48 16 -48 45 0 29 -3 33 -37 38 -69 12 -72
19 -54 116 8 46 19 107 23 134 l8 50 58 3 c42 2 57 7 57 17 0 11 -12 15 -40
15 -22 0 -40 5 -40 10 0 6 17 10 38 10 l37 0 -1 91 -1 91 -194 194 c-169 170
-197 195 -221 191 -15 -2 -24 1 -21 6 8 14 -98 157 -117 157 -3 0 -16 -13 -28
-29z m435 -417 c-3 -3 -12 -4 -19 -1 -8 3 -5 6 6 6 11 1 17 -2 13 -5z"/>
<path d="M3727 3633 c-4 -3 -7 -11 -7 -17 0 -6 5 -5 12 2 6 6 9 14 7 17 -3 3
-9 2 -12 -2z"/>
<path d="M3765 3606 c-15 -13 -24 -25 -19 -28 5 -4 22 4 38 17 15 12 24 25 19
28 -5 3 -22 -4 -38 -17z"/>
<path d="M1540 3616 c0 -2 8 -10 18 -17 15 -13 16 -12 3 4 -13 16 -21 21 -21
13z"/>
<path d="M3795 3564 c-19 -15 -22 -21 -9 -15 18 9 52 41 43 41 -2 0 -17 -12
-34 -26z"/>
<path d="M511 3374 c0 -11 3 -14 6 -6 3 7 2 16 -1 19 -3 4 -6 -2 -5 -13z"/>
<path d="M351 3324 c0 -11 3 -14 6 -6 3 7 2 16 -1 19 -3 4 -6 -2 -5 -13z"/>
<path d="M342 3250 c0 -19 2 -27 5 -17 2 9 2 25 0 35 -3 9 -5 1 -5 -18z"/>
<path d="M492 3260 c0 -14 2 -19 5 -12 2 6 2 18 0 25 -3 6 -5 1 -5 -13z"/>
<path d="M1248 3263 c7 -3 16 -2 19 1 4 3 -2 6 -13 5 -11 0 -14 -3 -6 -6z"/>
<path d="M4419 3214 c11 -56 6 -63 -51 -70 l-50 -7 6 -58 c7 -57 6 -59 -19
-69 -15 -6 -41 -10 -58 -10 l-33 0 4 -70 c5 -87 -4 -100 -69 -100 -48 0 -48 0
-54 -37 -3 -21 -10 -62 -15 -92 -16 -86 -15 -87 34 -100 44 -11 66 -37 51 -61
-3 -6 0 -12 7 -14 7 -3 55 -19 107 -37 l93 -32 -5 -33 c-5 -29 -2 -33 21 -39
15 -3 38 -13 50 -22 20 -12 23 -20 18 -48 -6 -31 -4 -34 34 -49 22 -9 43 -23
47 -32 3 -8 -6 -42 -20 -75 l-26 -59 42 -21 c55 -28 60 -38 37 -76 l-19 -33
44 -26 c25 -14 45 -30 45 -35 0 -14 -59 -117 -96 -169 l-32 -45 34 -25 c42
-32 47 -45 30 -78 -16 -30 -144 -174 -191 -214 l-29 -26 32 -36 c36 -41 39
-57 16 -76 -13 -12 -7 -22 52 -82 l68 -68 -29 -32 c-17 -18 2 -4 41 29 333
290 607 735 719 1164 l33 126 -438 438 c-411 411 -437 435 -431 399z"/>
<path d="M1238 3233 c7 -3 16 -2 19 1 4 3 -2 6 -13 5 -11 0 -14 -3 -6 -6z"/>
<path d="M1282 3210 c0 -14 2 -19 5 -12 2 6 2 18 0 25 -3 6 -5 1 -5 -13z"/>
<path d="M1193 3210 c2 -8 14 -16 28 -17 19 -1 20 -1 4 4 -11 3 -24 10 -28 17
-6 7 -7 6 -4 -4z"/>
<path d="M1311 3194 c0 -11 3 -14 6 -6 3 7 2 16 -1 19 -3 4 -6 -2 -5 -13z"/>
<path d="M4310 3190 c0 -5 14 -10 30 -10 17 0 30 5 30 10 0 6 -13 10 -30 10
-16 0 -30 -4 -30 -10z"/>
<path d="M333 3155 c0 -22 2 -30 4 -17 2 12 2 30 0 40 -3 9 -5 -1 -4 -23z"/>
<path d="M1208 3163 c6 -2 18 -2 25 0 6 3 1 5 -13 5 -14 0 -19 -2 -12 -5z"/>
<path d="M3868 3143 c7 -3 16 -2 19 1 4 3 -2 6 -13 5 -11 0 -14 -3 -6 -6z"/>
<path d="M4210 3050 c0 -5 5 -10 11 -10 5 0 7 5 4 10 -3 6 -8 10 -11 10 -2 0
-4 -4 -4 -10z"/>
<path d="M1329 3003 c23 -2 42 -10 44 -19 3 -9 4 -8 3 3 -1 14 -11 18 -44 19
l-42 1 39 -4z"/>
<path d="M434 2905 c0 -49 1 -71 3 -48 2 23 2 64 0 90 -2 26 -3 8 -3 -42z"/>
<path d="M463 2905 c0 -44 2 -61 4 -37 2 23 2 59 0 80 -2 20 -4 1 -4 -43z"/>
<path d="M3298 2953 c-13 -3 -18 -18 -20 -61 l-3 -57 -62 2 c-56 1 -62 -1 -67
-21 -11 -44 -66 -106 -118 -133 -42 -21 -67 -27 -120 -28 l-67 0 -12 -43 c-7
-24 -19 -46 -27 -49 -8 -4 -39 6 -69 21 l-55 27 -38 -41 c-20 -22 -33 -40 -29
-40 5 0 21 16 36 35 l28 35 131 -131 131 -131 42 7 c22 4 41 10 41 13 0 4 -4
23 -9 43 -5 21 -6 41 -2 46 3 6 43 29 89 53 45 23 98 55 118 71 20 16 40 29
45 29 4 0 21 -17 38 -37 l30 -36 21 24 c66 78 129 235 122 307 l-4 42 -44 0
c-38 0 -45 4 -59 30 -15 29 -28 33 -67 23z"/>
<path d="M354 2830 c0 -63 1 -89 3 -57 2 31 2 83 0 115 -2 31 -3 5 -3 -58z"/>
<path d="M3763 2843 c9 -2 25 -2 35 0 9 3 1 5 -18 5 -19 0 -27 -2 -17 -5z"/>
<path d="M473 2745 c0 -38 2 -53 4 -32 2 20 2 52 0 70 -2 17 -4 1 -4 -38z"/>
<path d="M323 2765 c0 -22 2 -30 4 -17 2 12 2 30 0 40 -3 9 -5 -1 -4 -23z"/>
<path d="M443 2735 c0 -38 2 -53 4 -32 2 20 2 52 0 70 -2 17 -4 1 -4 -38z"/>
<path d="M363 2660 c0 -25 2 -35 4 -22 2 12 2 32 0 45 -2 12 -4 2 -4 -23z"/>
<path d="M2690 2656 c0 -2 8 -10 18 -17 15 -13 16 -12 3 4 -13 16 -21 21 -21
13z"/>
<path d="M453 2615 c0 -22 2 -30 4 -17 2 12 2 30 0 40 -3 9 -5 -1 -4 -23z"/>
<path d="M482 2620 c0 -19 2 -27 5 -17 2 9 2 25 0 35 -3 9 -5 1 -5 -18z"/>
<path d="M2618 2623 l-27 -27 -28 24 -28 24 28 -29 27 -30 32 33 c18 17 30 32
28 32 -3 0 -18 -12 -32 -27z"/>
<path d="M2499 2623 c-13 -16 -12 -17 4 -4 9 7 17 15 17 17 0 8 -8 3 -21 -13z"/>
<path d="M2465 2599 c-4 -6 -14 -8 -24 -4 -13 5 -14 4 -3 -6 10 -11 15 -10 29
4 10 9 14 17 11 17 -4 0 -10 -5 -13 -11z"/>
<path d="M372 2565 c0 -16 2 -22 5 -12 2 9 2 23 0 30 -3 6 -5 -1 -5 -18z"/>
<path d="M462 2540 c0 -14 2 -19 5 -12 2 6 2 18 0 25 -3 6 -5 1 -5 -13z"/>
<path d="M3200 2508 c1 -7 11 -26 24 -42 31 -38 44 -16 15 24 -24 31 -39 39
-39 18z"/>
<path d="M381 2494 c0 -11 3 -14 6 -6 3 7 2 16 -1 19 -3 4 -6 -2 -5 -13z"/>
<path d="M4257 2447 c-4 -10 6 -18 31 -25 19 -6 39 -9 44 -6 15 10 8 22 -16
28 -13 3 -31 8 -39 12 -8 3 -17 -1 -20 -9z"/>
<path d="M481 2424 c0 -11 3 -14 6 -6 3 7 2 16 -1 19 -3 4 -6 -2 -5 -13z"/>
<path d="M4336 2345 c-4 -12 4 -20 30 -31 19 -8 39 -12 44 -9 18 11 10 33 -14
39 -13 3 -31 8 -39 12 -8 3 -17 -2 -21 -11z"/>
<path d="M3110 2340 c-9 -6 -10 -10 -3 -10 6 0 15 5 18 10 8 12 4 12 -15 0z"/>
<path d="M2103 2333 c4 -3 1 -13 -6 -22 -11 -14 -10 -14 5 -2 16 12 16 31 1
31 -4 0 -3 -3 0 -7z"/>
<path d="M3704 2314 c15 -14 31 -23 34 -20 6 7 -39 45 -53 45 -5 0 3 -11 19
-25z"/>
<path d="M2067 2313 c-10 -9 -9 -23 1 -23 5 0 9 7 9 15 0 17 -1 18 -10 8z"/>
<path d="M2260 2255 c35 -36 67 -65 69 -65 3 0 -24 29 -59 65 -35 36 -67 65
-69 65 -3 0 24 -29 59 -65z"/>
<path d="M2215 2250 c27 -27 51 -50 54 -50 3 0 -17 23 -44 50 -27 28 -51 50
-54 50 -3 0 17 -22 44 -50z"/>
<path d="M2429 2273 c-13 -16 -12 -17 4 -4 9 7 17 15 17 17 0 8 -8 3 -21 -13z"/>
<path d="M4427 2243 c-13 -12 -7 -23 23 -38 38 -20 50 -19 50 4 0 12 -11 23
-31 30 -38 13 -34 13 -42 4z"/>
<path d="M2730 2226 c0 -8 4 -17 9 -20 5 -4 7 3 4 14 -6 23 -13 26 -13 6z"/>
<path d="M5416 2229 c-2 -7 -14 -45 -26 -84 -91 -291 -264 -613 -467 -865 -37
-47 -129 -146 -203 -220 -74 -74 -122 -124 -107 -110 l28 24 487 -487 487
-487 103 0 102 0 0 923 0 922 -200 200 c-130 130 -201 194 -204 184z"/>
<path d="M2290 2076 c0 -2 8 -10 18 -17 15 -13 16 -12 3 4 -13 16 -21 21 -21
13z"/>
<path d="M5235 2048 c-34 -115 -170 -373 -289 -547 -106 -157 -323 -388 -489
-521 l-66 -53 27 -32 27 -31 45 33 c82 62 244 212 303 280 131 152 266 341
347 483 41 73 160 338 160 357 0 10 -42 53 -52 53 -4 0 -10 -10 -13 -22z"/>
<path d="M2436 2002 c-3 -5 1 -9 9 -9 8 0 12 4 9 9 -3 4 -7 8 -9 8 -2 0 -6 -4
-9 -8z"/>
<path d="M4523 1921 c-11 -17 -8 -22 24 -41 34 -20 36 -20 49 -3 18 25 18 26
-17 46 -38 21 -41 21 -56 -2z"/>
<path d="M4144 1809 c-3 -6 6 -24 22 -40 25 -26 30 -28 43 -14 13 13 12 17 -9
40 -25 27 -45 32 -56 14z"/>
<path d="M4009 1563 c-13 -16 -12 -17 4 -4 16 13 21 21 13 21 -2 0 -10 -8 -17
-17z"/>
<path d="M4001 1516 c-11 -13 -9 -21 11 -45 12 -17 27 -30 32 -30 6 -1 -3 12
-19 29 -16 16 -25 33 -21 37 4 5 21 -7 36 -24 34 -38 53 -25 23 15 -24 32 -45
38 -62 18z"/>
<path d="M3934 1502 c-17 -14 -18 -20 -8 -29 9 -9 15 -9 25 4 12 14 17 12 42
-18 16 -19 25 -25 19 -14 -6 11 -19 29 -31 39 -11 10 -18 23 -15 27 9 15 -10
9 -32 -9z"/>
<path d="M3940 1446 c0 -2 8 -10 18 -17 15 -13 16 -12 3 4 -13 16 -21 21 -21
13z"/>
<path d="M3882 1428 c-17 -17 -15 -25 9 -59 17 -24 24 -27 40 -19 24 14 24 25
-2 61 -23 32 -29 35 -47 17z"/>
<path d="M3430 1376 c0 -2 8 -10 18 -17 15 -13 16 -12 3 4 -13 16 -21 21 -21
13z"/>
<path d="M3628 1298 c5 -5 16 -8 23 -6 8 3 3 7 -10 11 -17 4 -21 3 -13 -5z"/>
<path d="M4359 1203 c-13 -16 -12 -17 4 -4 9 7 17 15 17 17 0 8 -8 3 -21 -13z"/>
<path d="M4249 1113 c-13 -16 -12 -17 4 -4 16 13 21 21 13 21 -2 0 -10 -8 -17
-17z"/>
<path d="M3405 1109 c-6 -8 1 -10 23 -7 29 4 31 2 43 -39 7 -25 16 -40 21 -35
4 4 2 25 -5 48 -12 33 -19 39 -45 42 -16 2 -33 -2 -37 -9z"/>
<path d="M4209 1083 c-13 -16 -12 -17 4 -4 9 7 17 15 17 17 0 8 -8 3 -21 -13z"/>
<path d="M3660 1051 c0 -25 6 -27 13 -6 4 8 2 17 -3 20 -6 4 -10 -3 -10 -14z"/>
<path d="M4434 1008 l-19 -23 23 19 c21 18 27 26 19 26 -2 0 -12 -10 -23 -22z"/>
<path d="M3991 974 c0 -11 3 -14 6 -6 3 7 2 16 -1 19 -3 4 -6 -2 -5 -13z"/>
<path d="M3701 973 c-1 -7 -9 -13 -18 -13 -15 0 -16 -2 -3 -10 18 -11 35 2 27
22 -4 9 -6 10 -6 1z"/>
<path d="M3935 935 c0 -13 3 -21 8 -18 4 2 7 10 7 18 0 8 -3 16 -7 18 -5 3 -8
-5 -8 -18z"/>
<path d="M3640 940 c20 -13 33 -13 25 0 -3 6 -14 10 -23 10 -15 0 -15 -2 -2
-10z"/>
<path d="M4554 908 l-19 -23 23 19 c21 18 27 26 19 26 -2 0 -12 -10 -23 -22z"/>
<path d="M4359 903 c-13 -16 -12 -17 4 -4 9 7 17 15 17 17 0 8 -8 3 -21 -13z"/>
<path d="M4409 843 c-13 -16 -12 -17 4 -4 16 13 21 21 13 21 -2 0 -10 -8 -17
-17z"/>
<path d="M4075 759 c-11 -5 -26 -22 -32 -36 l-13 -26 23 20 c12 12 32 24 45
28 12 3 20 11 17 16 -7 11 -14 11 -40 -2z"/>
<path d="M3378 513 c7 -3 16 -2 19 1 4 3 -2 6 -13 5 -11 0 -14 -3 -6 -6z"/>
<path d="M3258 493 c6 -2 18 -2 25 0 6 3 1 5 -13 5 -14 0 -19 -2 -12 -5z"/>
<path d="M2418 483 c7 -3 16 -2 19 1 4 3 -2 6 -13 5 -11 0 -14 -3 -6 -6z"/>
<path d="M2603 483 c9 -2 23 -2 30 0 6 3 -1 5 -18 5 -16 0 -22 -2 -12 -5z"/>
<path d="M3188 483 c6 -2 18 -2 25 0 6 3 1 5 -13 5 -14 0 -19 -2 -12 -5z"/>
<path d="M2698 473 c17 -2 47 -2 65 0 17 2 3 4 -33 4 -36 0 -50 -2 -32 -4z"/>
<path d="M2528 463 c6 -2 18 -2 25 0 6 3 1 5 -13 5 -14 0 -19 -2 -12 -5z"/>
<path d="M2858 463 c28 -2 76 -2 105 0 28 2 5 3 -53 3 -58 0 -81 -1 -52 -3z"/>
<path d="M2603 453 c9 -2 23 -2 30 0 6 3 -1 5 -18 5 -16 0 -22 -2 -12 -5z"/>
<path d="M2688 443 c17 -2 47 -2 65 0 17 2 3 4 -33 4 -36 0 -50 -2 -32 -4z"/>
<path d="M2853 433 c31 -2 83 -2 115 0 31 2 5 3 -58 3 -63 0 -89 -1 -57 -3z"/>
<path d="M2488 383 c7 -3 16 -2 19 1 4 3 -2 6 -13 5 -11 0 -14 -3 -6 -6z"/>
<path d="M2553 373 c9 -2 23 -2 30 0 6 3 -1 5 -18 5 -16 0 -22 -2 -12 -5z"/>
<path d="M2638 363 c12 -2 30 -2 40 0 9 3 -1 5 -23 4 -22 0 -30 -2 -17 -4z"/>
<path d="M2803 353 c54 -2 139 -2 190 0 51 1 7 3 -98 3 -104 0 -146 -2 -92 -3z"/>
<path d="M2893 323 c43 -2 110 -2 150 0 40 1 5 3 -78 3 -82 0 -115 -2 -72 -3z"/>
</g>
</svg>
